<svg width="65" height="64" viewBox="0 0 65 64" fill="none" xmlns="http://www.w3.org/2000/svg">
<path d="M32.5 45.0408V46.3655V47.6902" stroke="#1C274C" stroke-width="1.5" stroke-linecap="round"/>
<path d="M32.5 15.8967V17.2215V18.5462" stroke="#1C274C" stroke-width="1.5" stroke-linecap="round"/>
<path d="M40.625 25.1698C40.625 21.5116 36.9873 18.5461 32.5 18.5461C28.0127 18.5461 24.375 21.5116 24.375 25.1698C24.375 28.8279 28.0127 31.7934 32.5 31.7934C36.9873 31.7934 40.625 34.7589 40.625 38.4171C40.625 42.0752 36.9873 45.0407 32.5 45.0407C28.0127 45.0407 24.375 42.0752 24.375 38.4171" stroke="#1C274C" stroke-width="1.5" stroke-linecap="round"/>
<path d="M18.9584 8.84333C22.942 6.58904 27.567 5.29883 32.5001 5.29883C47.4578 5.29883 59.5834 17.1608 59.5834 31.7934C59.5834 46.4259 47.4578 58.288 32.5001 58.288C17.5424 58.288 5.41675 46.4259 5.41675 31.7934C5.41675 26.9676 6.73563 22.4431 9.04002 18.5461" stroke="#1C274C" stroke-width="1.5" stroke-linecap="round"/>
</svg>