<svg width="65" height="59" viewBox="0 0 65 59" fill="none" xmlns="http://www.w3.org/2000/svg">
<path d="M23.0208 27.0332V34.4059M18.9583 30.7195L27.0833 30.7195" stroke="#1C274C" stroke-width="1.5" stroke-linecap="round"/>
<path d="M7.10325 37.1545L5.6342 42.7041C4.60138 46.6058 7.34684 50.5078 11.7655 51.4183C15.4916 52.1861 19.3246 50.5799 21.0076 47.5454L21.3543 46.9204C22.8996 44.1342 26.1063 42.368 29.6194 42.368H35.3808C38.8939 42.368 42.1005 44.1342 43.6459 46.9204L43.9925 47.5454C45.6756 50.5799 49.5085 52.1861 53.2347 51.4183C57.6533 50.5078 60.3988 46.6058 59.366 42.7041L56.4279 31.605C54.767 25.331 53.9366 22.1939 51.581 20.1365C50.9848 19.6158 50.3259 19.1543 49.6161 18.7602C46.8112 17.2029 43.1631 17.2029 35.867 17.2029H29.1332C21.837 17.2029 18.1889 17.2029 15.3841 18.7602C14.6742 19.1543 14.0153 19.6158 13.4192 20.1365C11.7222 21.6187 10.8167 23.6612 9.82212 27.0331" stroke="#1C274C" stroke-width="1.5" stroke-linecap="round"/>
<path d="M32.5 17.203V14.7455C32.5 13.3882 33.7126 12.2879 35.2083 12.2879H37.9167C39.4124 12.2879 40.625 11.1876 40.625 9.83036V7.3728" stroke="#1C274C" stroke-width="1.5" stroke-linecap="round"/>
<path d="M43.3334 27.0332C43.3334 28.3905 42.1209 29.4908 40.6251 29.4908C39.1293 29.4908 37.9167 28.3905 37.9167 27.0332C37.9167 25.676 39.1293 24.5757 40.6251 24.5757C42.1209 24.5757 43.3334 25.676 43.3334 27.0332Z" fill="#1C274C"/>
<path d="M48.7501 34.4059C48.7501 35.7632 47.5375 36.8635 46.0417 36.8635C44.546 36.8635 43.3334 35.7632 43.3334 34.4059C43.3334 33.0487 44.546 31.9484 46.0417 31.9484C47.5375 31.9484 48.7501 33.0487 48.7501 34.4059Z" fill="#1C274C"/>
</svg>