<svg width="180" height="175" viewBox="0 0 180 175" fill="none" xmlns="http://www.w3.org/2000/svg">
<path d="M113.96 114.729C126.924 117.29 140.38 116.111 152.655 111.338C147.63 123.428 138.978 133.788 127.812 141.084C116.646 148.381 103.477 152.279 90.0004 152.279C74.3282 152.263 59.15 146.976 47.0678 137.325C34.9855 127.674 26.7516 114.26 23.7777 99.383C20.8038 84.5057 23.275 69.0915 30.7678 55.7828C38.2606 42.4742 50.3082 32.0999 64.8454 26.4385C59.9089 38.3074 58.689 51.3173 61.3374 63.851C63.9859 76.3847 70.3858 87.8895 79.7417 96.9352C89.0975 105.981 100.997 112.169 113.96 114.729Z" stroke="#18181B" stroke-width="2" stroke-linecap="round" stroke-linejoin="round"/>
</svg>