<svg width="65" height="63" viewBox="0 0 65 63" fill="none" xmlns="http://www.w3.org/2000/svg">
<path d="M52.4367 44.625C54.4572 45.8221 55.5209 47.1801 55.5209 48.5625C55.5209 49.9448 54.4572 51.3028 52.4367 52.5C50.4162 53.6972 47.5101 54.6913 44.0105 55.3824C40.5109 56.0736 36.5411 56.4375 32.5001 56.4375C28.4591 56.4375 24.4893 56.0736 20.9897 55.3825C17.4901 54.6913 14.584 53.6972 12.5635 52.5C10.543 51.3028 9.47925 49.9449 9.47925 48.5625C9.47925 47.1801 10.543 45.8222 12.5635 44.625" stroke="#222222" stroke-linecap="round"/>
<path d="M52.8125 26.25C52.8125 40.3469 35.7883 49.5333 32.9107 50.9853C32.6451 51.1193 32.3549 51.1193 32.0893 50.9853C29.2117 49.5333 12.1875 40.3469 12.1875 26.25C12.1875 14.4375 22.0296 6.5625 32.5 6.5625C43.3333 6.5625 52.8125 14.4375 52.8125 26.25Z" stroke="#222222"/>
<path d="M42.8334 26.25C42.8334 31.7582 38.2219 36.25 32.5001 36.25C26.7783 36.25 22.1667 31.7582 22.1667 26.25C22.1667 20.7418 26.7783 16.25 32.5001 16.25C38.2219 16.25 42.8334 20.7418 42.8334 26.25Z" stroke="#222222"/>
</svg>