<svg width="180" height="180" viewBox="0 0 180 180" fill="none" xmlns="http://www.w3.org/2000/svg">
<path d="M90 22.5V30M90 150V157.5M157.5 90H150M30 90H22.5M137.73 137.73L132.427 132.427M47.5725 47.5725L42.27 42.27M137.73 42.27L132.427 47.5725M47.5725 132.427L42.27 137.73M120 90C120 97.9565 116.839 105.587 111.213 111.213C105.587 116.839 97.9565 120 90 120C82.0435 120 74.4129 116.839 68.7868 111.213C63.1607 105.587 60 97.9565 60 90C60 82.0435 63.1607 74.4129 68.7868 68.7868C74.4129 63.1607 82.0435 60 90 60C97.9565 60 105.587 63.1607 111.213 68.7868C116.839 74.4129 120 82.0435 120 90Z" stroke="#18181B" stroke-width="2" stroke-linecap="round" stroke-linejoin="round"/>
</svg>