<svg width="180" height="180" xmlns="http://www.w3.org/2000/svg" fill="none">

 <g>
  <title>Layer 1</title>
  <g id="svg_4">
   <path id="svg_1" stroke-linejoin="round" stroke-linecap="round" stroke-width="2" stroke="#18181B" d="m97.9939,99.23782c5.642,2.476 11.886,3.336 17.955,2.471c-3.507,4.874 -8.49,8.604 -14.308,10.708c-5.819,2.104 -12.206,2.488 -18.34,1.1c-7.132,-1.62 -13.508,-5.54 -18.0339,-11.088c-4.5262,-5.547 -6.9213,-12.377 -6.7745,-19.317c0.1467,-6.941 2.826,-13.561 7.5784,-18.725c4.753,-5.1633 11.283,-8.5496 18.471,-9.578c-3.444,4.7848 -5.311,10.461 -5.37,16.323c-0.058,5.862 1.694,11.652 5.041,16.649c3.346,4.997 8.138,8.981 13.781,11.457z"/>
   <path id="svg_2" stroke-linejoin="round" stroke-linecap="round" stroke-width="2" stroke="#18181B" d="m24.843,56.12212l7.2397,3.2032m115.8354,51.2515l7.239,3.203m-37.77,-90.7284l-3.043,6.8777m-48.6882,110.0437l-3.043,6.877m92.8262,-85.2836l-7.27,2.5976m-116.3383,41.574l-7.2699,2.598m38.7318,-87.5398l2.9674,7.1272m47.481,114.0556l2.967,7.127m-14.536,-91.6658c7.681,3.3981 13.764,9.5558 16.912,17.1178c3.148,7.562 3.103,15.909 -0.125,23.206c-3.228,7.296 -9.375,12.944 -17.089,15.7c-7.713,2.757 -16.362,2.396 -24.042,-1.002c-7.68,-3.398 -13.7637,-9.556 -16.9118,-17.118c-3.1481,-7.562 -3.1031,-15.909 0.1251,-23.206c3.2283,-7.296 9.3757,-12.9437 17.0887,-15.7001c7.714,-2.7564 16.362,-2.3959 24.042,1.0023z"/>
  </g>
 </g>
</svg>