<svg width="65" height="65" viewBox="0 0 65 65" fill="none" xmlns="http://www.w3.org/2000/svg">
<path d="M40.6251 16.2501V13.5417C40.6251 9.05443 36.9874 5.41675 32.5001 5.41675C28.0128 5.41675 24.3751 9.05444 24.3751 13.5417V30.7334C24.3751 31.6488 23.9013 32.4885 23.1872 33.0612C19.7835 35.7912 17.6042 39.9849 17.6042 44.6876C17.6042 52.9143 24.2733 59.5834 32.5001 59.5834C40.7268 59.5834 47.3959 52.9143 47.3959 44.6876C47.3959 39.9849 45.2167 35.7912 41.8129 33.0612C41.0989 32.4885 40.6251 31.6488 40.6251 30.7334V27.0834" stroke="#1C274C" stroke-width="1.5" stroke-linecap="round"/>
<path d="M39.2702 44.6871C39.2702 48.4265 36.2388 51.4579 32.4993 51.4579C28.7599 51.4579 25.7285 48.4265 25.7285 44.6871C25.7285 40.9477 28.7599 37.9163 32.4993 37.9163C36.2388 37.9163 39.2702 40.9477 39.2702 44.6871Z" stroke="#1C274C" stroke-width="1.5"/>
<path d="M32.5 37.9167V32.5001M32.5 13.5417V21.6667" stroke="#1C274C" stroke-width="1.5" stroke-linecap="round"/>
</svg>